<?xml version="1.0" encoding="UTF-8" standalone="no"?> <!-- Created with Vectornator for iOS (http://vectornator.io/) --><!DOCTYPE svg PUBLIC "-//W3C//DTD SVG 1.1//EN" "http://www.w3.org/Graphics/SVG/1.1/DTD/svg11.dtd">
<svg height="100%" style="fill-rule:evenodd;clip-rule:evenodd;stroke-linecap:round;stroke-linejoin:round;" xmlns:xlink="http://www.w3.org/1999/xlink" xmlns="http://www.w3.org/2000/svg" xml:space="preserve" width="100%" xmlns:vectornator="http://vectornator.io" version="1.1" viewBox="0 0 571.9 155.84">
<metadata>
<vectornator:setting key="DimensionsVisible" value="1"/>
<vectornator:setting key="PencilOnly" value="0"/>
<vectornator:setting key="SnapToPoints" value="0"/>
<vectornator:setting key="OutlineMode" value="0"/>
<vectornator:setting key="CMYKEnabledKey" value="0"/>
<vectornator:setting key="RulersVisible" value="1"/>
<vectornator:setting key="SnapToEdges" value="0"/>
<vectornator:setting key="GuidesVisible" value="1"/>
<vectornator:setting key="DisplayWhiteBackground" value="0"/>
<vectornator:setting key="doHistoryDisabled" value="0"/>
<vectornator:setting key="SnapToGuides" value="1"/>
<vectornator:setting key="TimeLapseWatermarkDisabled" value="0"/>
<vectornator:setting key="Units" value="Pixels"/>
<vectornator:setting key="DynamicGuides" value="0"/>
<vectornator:setting key="IsolateActiveLayer" value="0"/>
<vectornator:setting key="SnapToGrid" value="0"/>
</metadata>
<defs/>
<g id="Layer 1" vectornator:layerName="Layer 1">
<g opacity="1">
<path d="M19.75+67.4086L19.75+96.8086L9.95001+96.8086L9.95001+67.4086L1.90001+67.4086L1.90001+59.1086L27.8+59.1086L27.8+67.4086L19.75+67.4086Z" opacity="1" fill="#121212"/>
<path d="M44.45+73.6586L58.6+73.6586L58.6+59.1086L68.4+59.1086L68.4+96.8086L58.6+96.8086L58.6+81.2586L44.45+81.2586L44.45+96.8086L34.65+96.8086L34.65+59.1086L44.45+59.1086L44.45+73.6586Z" opacity="1" fill="#121212"/>
<path d="M100.25+67.4086L88.6+67.4086L88.6+73.7086L99.6+73.7086L99.6+82.0086L88.6+82.0086L88.6+88.5086L100.25+88.5086L100.25+96.8086L78.8+96.8086L78.8+59.1086L100.25+59.1086L100.25+67.4086Z" opacity="1" fill="#121212"/>
<path d="M139.1+59.1086L139.1+79.6086C139.1+80.7086+139.142+81.8336+139.225+82.9836C139.308+84.1336+139.558+85.1753+139.975+86.1086C140.392+87.0419+141.05+87.8003+141.95+88.3836C142.85+88.9669+144.117+89.2586+145.75+89.2586C147.383+89.2586+148.642+88.9669+149.525+88.3836C150.408+87.8003+151.067+87.0419+151.5+86.1086C151.933+85.1753+152.192+84.1336+152.275+82.9836C152.358+81.8336+152.4+80.7086+152.4+79.6086L152.4+59.1086L162.15+59.1086L162.15+80.9586C162.15+86.8253+160.808+91.1086+158.125+93.8086C155.442+96.5086+151.317+97.8586+145.75+97.8586C140.183+97.8586+136.05+96.5086+133.35+93.8086C130.65+91.1086+129.3+86.8253+129.3+80.9586L129.3+59.1086L139.1+59.1086Z" opacity="1" fill="#121212"/>
<path d="M182.35+59.1086L182.35+88.5086L194.1+88.5086L194.1+96.8086L172.55+96.8086L172.55+59.1086L182.35+59.1086Z" opacity="1" fill="#121212"/>
<path d="M213.95+67.4086L213.95+96.8086L204.15+96.8086L204.15+67.4086L196.1+67.4086L196.1+59.1086L222+59.1086L222+67.4086L213.95+67.4086Z" opacity="1" fill="#121212"/>
<path d="M238.65+59.1086L238.65+96.8086L228.85+96.8086L228.85+59.1086L238.65+59.1086Z" opacity="1" fill="#121212"/>
<path d="M247.35+96.8086L253.75+59.1086L263.45+59.1086L271+79.2086L278.5+59.1086L288.2+59.1086L294.6+96.8086L284.85+96.8086L281.6+75.1086L272.7+96.8086L268.8+96.8086L260.35+75.1086L257.1+96.8086L247.35+96.8086Z" opacity="1" fill="#121212"/>
<path d="M323.8+82.8086L319.4+70.2586L315+82.8086L323.8+82.8086ZM326.4+90.2586L312.4+90.2586L310.15+96.8086L299.7+96.8086L314.05+59.1086L324.75+59.1086L339.1+96.8086L328.65+96.8086L326.4+90.2586Z" opacity="1" fill="#121212"/>
<path d="M358.55+67.4086L358.55+96.8086L348.75+96.8086L348.75+67.4086L340.7+67.4086L340.7+59.1086L366.6+59.1086L366.6+67.4086L358.55+67.4086Z" opacity="1" fill="#121212"/>
<path d="M394.9+67.4086L383.25+67.4086L383.25+73.7086L394.25+73.7086L394.25+82.0086L383.25+82.0086L383.25+88.5086L394.9+88.5086L394.9+96.8086L373.45+96.8086L373.45+59.1086L394.9+59.1086L394.9+67.4086Z" opacity="1" fill="#121212"/>
<path d="M422.25+77.9586C422.25+75.1586+422.767+72.5503+423.8+70.1336C424.833+67.7169+426.267+65.6086+428.1+63.8086C429.933+62.0086+432.125+60.6003+434.675+59.5836C437.225+58.5669+440.033+58.0586+443.1+58.0586C446.133+58.0586+448.933+58.5669+451.5+59.5836C454.067+60.6003+456.275+62.0086+458.125+63.8086C459.975+65.6086+461.417+67.7169+462.45+70.1336C463.483+72.5503+464+75.1586+464+77.9586C464+80.5586+463.575+82.9753+462.725+85.2086C461.875+87.4419+460.65+89.4253+459.05+91.1586L465.45+97.8586L456.45+99.2586L453+95.7086C451.533+96.3753+449.975+96.9003+448.325+97.2836C446.675+97.6669+444.933+97.8586+443.1+97.8586C440.033+97.8586+437.225+97.3503+434.675+96.3336C432.125+95.3169+429.933+93.9086+428.1+92.1086C426.267+90.3086+424.833+88.2003+423.8+85.7836C422.767+83.3669+422.25+80.7586+422.25+77.9586ZM432.5+77.9586C432.5+79.4586+432.783+80.8419+433.35+82.1086C433.917+83.3753+434.683+84.4753+435.65+85.4086C436.617+86.3419+437.742+87.0669+439.025+87.5836C440.308+88.1003+441.667+88.3586+443.1+88.3586C443.967+88.3586+444.833+88.2586+445.7+88.0586L440.1+82.1586L449.35+81.0086L451.95+83.7586C453.15+82.0919+453.75+80.1586+453.75+77.9586C453.75+76.4586+453.467+75.0753+452.9+73.8086C452.333+72.5419+451.558+71.4419+450.575+70.5086C449.592+69.5753+448.458+68.8503+447.175+68.3336C445.892+67.8169+444.533+67.5586+443.1+67.5586C441.667+67.5586+440.308+67.8169+439.025+68.3336C437.742+68.8503+436.617+69.5753+435.65+70.5086C434.683+71.4419+433.917+72.5419+433.35+73.8086C432.783+75.0753+432.5+76.4586+432.5+77.9586Z" opacity="1" fill="#121212"/>
<path d="M482.5+59.1086L482.5+79.6086C482.5+80.7086+482.542+81.8336+482.625+82.9836C482.708+84.1336+482.958+85.1753+483.375+86.1086C483.792+87.0419+484.45+87.8003+485.35+88.3836C486.25+88.9669+487.517+89.2586+489.15+89.2586C490.783+89.2586+492.042+88.9669+492.925+88.3836C493.808+87.8003+494.467+87.0419+494.9+86.1086C495.333+85.1753+495.592+84.1336+495.675+82.9836C495.758+81.8336+495.8+80.7086+495.8+79.6086L495.8+59.1086L505.55+59.1086L505.55+80.9586C505.55+86.8253+504.208+91.1086+501.525+93.8086C498.842+96.5086+494.717+97.8586+489.15+97.8586C483.583+97.8586+479.45+96.5086+476.75+93.8086C474.05+91.1086+472.7+86.8253+472.7+80.9586L472.7+59.1086L482.5+59.1086Z" opacity="1" fill="#121212"/>
<path d="M525.75+59.1086L525.75+96.8086L515.95+96.8086L515.95+59.1086L525.75+59.1086Z" opacity="1" fill="#121212"/>
<path d="M549.4+88.5086L565.2+88.5086L565.2+96.8086L532.95+96.8086L550.8+67.4086L535.95+67.4086L535.95+59.1086L567.15+59.1086L549.4+88.5086Z" opacity="1" fill="#121212"/>
</g>
<path d="M316.687+0L320.151+2L295.151+45.3013L291.687+43.3013L316.687+0Z" opacity="1" fill="#121212"/>
<path d="M248.03+110.534L251.494+112.534L226.494+155.835L223.03+153.835L248.03+110.534Z" opacity="1" fill="#121212"/>
</g>
</svg>
